<?xml version="1.0" standalone="no"?>
<!DOCTYPE svg PUBLIC "-//W3C//DTD SVG 20010904//EN"
 "http://www.w3.org/TR/2001/REC-SVG-20010904/DTD/svg10.dtd">
<svg version="1.0" xmlns="http://www.w3.org/2000/svg"
 width="940.000000pt" height="270.000000pt" viewBox="0 0 940.000000 270.000000"
 preserveAspectRatio="xMidYMid meet">
<metadata>
Created by potrace 1.16, written by Peter Selinger 2001-2019
</metadata>
<g transform="translate(0.000000,270.000000) scale(0.100000,-0.100000)"
fill="#E3A624" stroke="none">
<path d="M3080 2683 c0 -10 -7 -176 -16 -370 -9 -193 -14 -359 -11 -367 4 -9
13 -16 21 -16 20 0 24 49 31 345 3 143 8 297 11 343 6 78 5 82 -15 82 -13 0
-21 -6 -21 -17z"/>
<path d="M4096 2693 c-18 -5 -18 -6 5 -25 21 -17 22 -18 2 -9 -12 6 -25 15
-28 21 -3 5 -12 7 -20 4 -10 -4 5 -20 45 -50 33 -24 60 -46 60 -49 0 -3 -24
12 -53 35 -58 43 -73 49 -63 25 3 -8 0 -15 -7 -15 -7 0 -93 -68 -192 -151 -99
-84 -243 -204 -320 -269 -77 -64 -146 -124 -154 -134 -8 -9 -26 -23 -41 -31
-15 -8 -45 -29 -68 -48 -32 -27 -47 -33 -69 -29 l-28 5 24 -22 c13 -11 25 -21
27 -21 2 0 15 11 30 25 14 13 30 22 35 20 4 -3 11 0 15 6 5 8 3 9 -7 4 -11 -6
-12 -5 -2 5 14 15 43 22 43 11 0 -4 -17 -23 -37 -44 -31 -30 -44 -35 -70 -32
-20 2 -33 0 -33 -7 0 -7 -6 -6 -15 2 -22 18 -29 6 -8 -12 10 -9 43 -19 73 -23
52 -7 54 -7 40 10 -14 17 -13 17 5 8 19 -10 130 -38 185 -47 36 -5 -67 2 -115
9 -30 4 -35 3 -20 -4 16 -8 16 -10 4 -10 -9 -1 -31 -4 -48 -7 -20 -4 -31 -3
-31 5 0 6 8 12 18 12 20 2 -33 16 -63 17 -17 1 -17 -1 5 -13 25 -14 25 -14
-16 -15 -22 0 -49 7 -60 15 -28 21 -81 19 -87 -4 -6 -25 -44 -30 -232 -29
-150 0 -302 -3 -775 -18 -107 -4 -321 -8 -475 -10 -522 -6 -615 -9 -615 -18 0
-5 141 -6 333 -2 182 4 620 11 972 16 1070 16 1355 22 1355 31 0 4 -24 10 -52
12 -29 2 3 2 72 0 413 -11 493 -11 516 -3 14 6 22 14 19 20 -8 13 -65 13 -65
0 0 -6 -28 -9 -67 -8 l-68 1 60 7 60 7 -80 2 c-44 1 -75 5 -68 7 7 3 9 12 6
20 -5 13 -7 13 -14 2 -7 -10 -9 -10 -9 0 0 6 -10 12 -21 12 -18 0 -19 -2 -9
-15 11 -13 0 -15 -89 -15 -82 0 -111 4 -148 21 -55 25 -50 38 7 15 22 -9 55
-16 73 -15 30 1 29 2 -13 13 -40 11 -32 12 78 8 l122 -4 2 58 1 59 7 -55 7
-55 1 58 c2 46 -1 57 -14 57 -8 0 -13 3 -11 8 3 4 -6 8 -19 8 -26 2 -30 -6
-13 -23 9 -9 2 -13 -27 -18 -65 -10 -207 -47 -235 -61 -14 -7 -61 -16 -105
-19 -43 -4 -94 -11 -112 -17 -27 -8 -37 -7 -51 6 -10 9 -21 16 -26 16 -5 0 0
-7 11 -15 18 -14 18 -14 -8 -15 -15 0 -30 5 -33 10 -8 13 14 42 25 35 4 -2 16
5 26 18 l19 22 -25 -20 -25 -19 22 24 c21 23 24 23 85 12 35 -6 64 -16 66 -22
2 -5 8 -10 14 -10 6 0 8 7 4 15 -7 19 -1 19 29 -1 18 -12 29 -13 42 -5 16 9
16 10 -5 11 -13 0 -20 4 -17 10 4 6 -1 7 -11 3 -11 -4 -15 -3 -10 5 3 6 -2 16
-13 21 -30 17 -39 12 -11 -5 19 -11 20 -13 5 -9 -37 9 -120 44 -108 45 6 0 23
-4 37 -10 40 -15 31 -2 -11 15 -29 12 -38 13 -46 3 -4 -7 -7 -8 -5 -2 2 7 59
58 127 114 68 56 121 97 117 91 -4 -6 -54 -49 -111 -97 -58 -47 -105 -88 -105
-91 0 -4 8 1 18 9 9 8 60 50 112 93 52 43 136 115 185 160 50 45 131 114 180
155 100 81 130 108 105 94 -13 -7 -13 -5 -1 9 11 15 16 15 40 2 14 -7 42 -28
61 -45 l35 -32 -40 30 c-45 33 -85 55 -85 48 0 -3 13 -12 30 -21 16 -8 60 -43
97 -78 38 -34 61 -53 53 -42 -15 20 -14 20 8 1 23 -20 30 -32 12 -21 -14 9
-13 6 14 -48 13 -26 26 -42 28 -35 3 8 7 6 11 -5 3 -9 2 -17 -3 -17 -6 0 -10
-5 -10 -11 0 -5 4 -8 9 -5 5 3 16 -14 24 -39 9 -25 12 -45 6 -45 -5 0 -9 -5
-9 -10 0 -6 5 -9 12 -8 6 2 18 -23 27 -54 15 -56 36 -76 43 -40 3 14 5 13 10
-6 3 -12 3 -20 -1 -18 -4 3 -13 1 -21 -5 -11 -6 -11 -9 -2 -10 6 -1 17 -2 23
-3 14 -1 32 -46 19 -46 -4 0 -14 -16 -20 -36 l-12 -36 -75 4 c-79 5 -111 -7
-41 -16 87 -11 93 -13 53 -15 -35 -1 -44 -7 -74 -46 -18 -25 -39 -45 -45 -44
-10 2 -21 -2 -76 -24 -9 -4 -5 -6 10 -6 49 2 57 0 40 -11 -8 -5 -11 -10 -7
-10 4 0 25 11 45 25 36 25 68 34 57 16 -3 -6 9 -8 29 -4 18 3 42 0 52 -6 15
-9 4 -11 -54 -10 -41 1 -78 -3 -84 -9 -8 -8 23 -11 107 -11 l117 0 -18 22
c-10 12 -12 16 -4 10 21 -19 58 -16 63 5 4 15 5 15 6 0 2 -33 214 -37 227 -4
3 8 -1 39 -9 69 -10 37 -11 57 -4 60 6 2 5 21 -4 56 -9 36 -15 47 -19 35 -5
-13 -10 -6 -17 24 -6 23 -7 39 -2 36 5 -3 9 -12 9 -21 0 -9 2 -14 5 -11 9 8
-6 59 -15 53 -4 -3 -11 2 -14 11 -3 8 -2 12 4 9 13 -8 13 -5 -11 88 -20 78
-39 125 -25 62 4 -20 3 -25 -3 -15 -5 8 -11 31 -15 50 -4 26 -3 30 3 15 12
-25 12 0 1 35 -7 21 -8 22 -10 5 l-1 -20 -9 20 c-5 11 -9 27 -9 35 -1 13 0 13
9 0 6 -10 10 -11 10 -2 0 9 58 13 253 14 l252 3 -265 5 -265 6 310 -1 c284 -1
315 -3 372 -22 77 -26 145 -69 198 -125 l40 -42 -50 45 c-88 80 -202 131 -284
128 -31 -1 -28 -3 15 -9 117 -17 229 -78 297 -161 16 -19 25 -27 21 -19 -7 13
-5 13 9 1 19 -15 23 -26 6 -15 -7 4 -10 1 -7 -7 3 -8 10 -14 16 -14 5 0 14 -4
19 -9 5 -5 2 -6 -6 -1 -9 5 -12 3 -9 -6 3 -8 10 -14 16 -14 5 0 14 -4 19 -9 5
-5 3 -6 -4 -2 -18 10 -16 3 8 -38 12 -20 26 -33 32 -29 6 3 7 1 3 -5 -4 -6 9
-42 27 -79 19 -37 45 -97 57 -133 13 -36 24 -66 24 -66 5 -8 44 -12 54 -5 10
6 8 22 -12 74 -14 37 -22 67 -18 67 4 0 2 4 -4 8 -14 9 -110 194 -106 205 1 5
-2 6 -8 2 -9 -6 -14 8 -11 28 1 5 -2 6 -7 3 -10 -6 -48 54 -43 69 1 6 0 7 -4
3 -8 -8 -70 60 -70 76 0 6 -4 11 -10 11 -12 0 -56 30 -52 36 1 2 0 3 -2 2 -2
-1 -30 12 -63 28 -82 41 -173 59 -293 57 l-100 -2 75 -7 c64 -5 60 -6 -25 -2
-55 2 -172 5 -260 6 -88 2 -189 6 -225 10 -41 4 -51 3 -27 -2 20 -4 41 -11 45
-16 4 -4 -2 -5 -13 -2 -43 12 -130 18 -116 8 11 -7 9 -10 -10 -13 -13 -1 -29
-14 -36 -28 -10 -21 -13 -22 -19 -7 -3 9 -3 25 0 34 6 16 6 16 -12 0 -10 -9
-22 -17 -27 -17 -4 0 4 9 18 20 14 11 25 29 24 40 -1 10 -3 17 -6 15 -2 -3
-37 27 -77 65 -40 38 -87 76 -104 85 -17 9 -28 20 -25 25 4 6 5 9 3 9 -2 -1
-12 -4 -22 -6z m413 -328 c7 -30 16 -53 21 -50 4 3 11 -2 14 -11 4 -10 2 -13
-6 -8 -8 5 -9 0 -5 -17 4 -13 7 -31 8 -39 0 -10 3 -9 8 4 7 19 8 19 13 -2 4
-12 2 -22 -3 -22 -5 0 -9 -8 -9 -17 0 -14 2 -15 9 -5 7 11 9 11 14 -2 3 -8 1
-16 -5 -18 -8 -3 -8 -12 1 -33 l11 -30 -6 30 c-9 47 6 23 21 -34 7 -28 9 -49
4 -45 -5 3 -9 12 -9 21 0 9 -2 14 -5 11 -9 -9 16 -98 26 -93 8 5 21 -35 34
-100 4 -25 4 -27 -5 -10 -8 16 -9 14 -4 -12 6 -33 5 -33 -33 -32 -21 0 -47 4
-58 9 l-20 9 20 0 c12 1 16 4 9 9 -6 4 -15 22 -19 40 -3 18 -11 30 -15 27 -5
-3 -14 14 -20 37 -6 24 -13 49 -15 56 -3 7 -1 11 4 7 5 -3 12 -23 16 -46 4
-22 9 -38 12 -35 9 8 -18 106 -28 101 -4 -3 -13 14 -19 37 -6 24 -13 49 -15
56 -3 7 -1 11 4 7 5 -3 12 -23 16 -46 4 -22 9 -38 12 -35 9 8 -18 106 -28 101
-4 -3 -13 14 -20 37 -6 24 -14 47 -17 52 -3 5 0 6 6 2 6 -4 14 -23 18 -42 3
-19 9 -33 12 -30 6 7 -49 195 -57 194 -19 -2 -24 4 -11 12 8 5 36 10 61 10
l46 0 12 -55z"/>
<path d="M2032 2000 c-45 -4 -86 -10 -89 -14 -4 -4 31 -3 77 1 47 4 189 8 315
8 220 0 316 -9 403 -36 60 -20 25 -21 -80 -3 -113 19 -457 22 -620 7 -68 -7
-91 -6 -101 4 -7 8 -23 15 -34 17 -18 4 -20 1 -17 -27 l5 -32 -18 28 c-10 15
-21 26 -26 24 -12 -4 -9 -22 3 -23 23 -3 25 -5 14 -12 -6 -4 -14 -20 -17 -37
l-6 -30 15 30 15 30 -6 -27 c-7 -37 18 -38 41 -3 16 24 16 27 -1 45 -10 11
-13 20 -7 20 18 0 31 -33 25 -63 l-6 -28 199 6 c183 6 639 24 709 28 78 5 21
38 -125 73 -74 18 -526 28 -668 14z"/>
<path d="M6774 1801 c4 -6 29 -11 56 -11 27 0 51 -4 54 -9 9 -14 -328 -23
-736 -19 -301 2 -372 1 -355 -9 17 -9 159 -12 581 -12 307 0 561 -2 563 -5 3
-2 208 -5 456 -5 432 0 548 10 275 23 -68 3 -240 15 -383 25 -290 22 -341 24
-331 14 3 -4 91 -12 194 -19 l187 -13 -195 5 c-231 5 -222 4 -216 19 2 6 -1
12 -7 13 -117 13 -149 14 -143 3z"/>
<path d="M120 1750 c-11 -7 -7 -10 18 -10 17 0 32 -4 32 -10 0 -14 -64 -12
-78 2 -9 9 -12 7 -13 -12 l-1 -25 -8 25 c-4 14 -8 18 -9 9 -2 -26 79 -232 95
-243 8 -6 16 -33 18 -61 3 -41 2 -44 -4 -15 l-7 35 -3 -30 c-2 -30 -2 -30 -10
-5 -7 21 -8 16 -11 -25 l-2 -50 -7 45 c-7 38 -7 36 -4 -18 2 -34 8 -70 13 -80
8 -13 9 -9 6 18 l-6 35 14 -35 c12 -33 11 -36 -13 -52 -14 -10 -20 -18 -13
-18 6 0 15 5 18 10 3 5 11 10 16 10 6 0 4 -7 -5 -15 -8 -8 -21 -15 -30 -15
-21 0 -31 -20 -9 -20 10 0 27 -8 38 -17 l20 -16 -20 8 c-40 16 -74 13 -92 -7
-17 -19 -17 -21 27 -58 25 -21 48 -36 52 -34 4 2 10 -1 14 -7 4 -8 3 -9 -4 -5
-7 4 -12 6 -12 4 1 -2 7 -28 15 -58 l15 -55 -4 50 -4 50 11 -47 c10 -45 12
-48 43 -48 32 0 32 0 38 63 4 34 4 71 1 82 -6 19 -6 19 5 1 8 -12 11 -42 7
-85 -3 -41 -2 -56 3 -41 8 24 8 24 9 3 1 -22 5 -23 74 -23 l72 0 -7 103 c-8
116 -10 128 -32 182 -32 76 -76 119 -143 139 -21 7 -22 4 -26 -71 -1 -43 -4 3
-5 102 -1 99 -5 217 -9 263 l-6 82 -31 0 c-17 0 -38 -5 -46 -10z"/>
<path d="M2572 1650 l22 -30 288 0 c158 0 288 2 288 5 0 3 -7 17 -16 30 l-16
25 -294 0 -295 0 23 -30z"/>
<path d="M5767 1643 c-4 -3 1 -12 10 -18 15 -11 14 -12 -10 -12 -16 0 -25 4
-21 11 3 6 -3 1 -12 -11 -15 -22 -24 -23 -136 -23 -66 0 -128 5 -140 11 -17 9
-19 8 -16 -8 2 -12 15 -20 38 -24 19 -4 29 -7 22 -8 -23 -2 68 -71 93 -71 28
0 111 66 92 73 -6 3 -2 6 9 6 12 1 27 -6 34 -14 15 -19 51 -16 58 4 3 9 -1 11
-16 7 -12 -4 -23 -2 -28 5 -5 9 -2 10 9 6 10 -4 20 0 26 11 10 16 10 16 11 0
0 -10 5 -18 10 -18 14 0 12 54 -2 68 -14 14 -22 15 -31 5z"/>
<path d="M5990 1500 c0 -5 10 -12 23 -15 12 -2 299 -8 637 -13 l615 -9 -629
-1 c-587 -2 -631 -1 -649 16 -20 16 -20 16 -13 -3 4 -11 10 -44 13 -73 3 -29
10 -55 16 -59 6 -4 8 4 3 20 -3 14 -2 36 3 49 6 14 10 17 10 7 1 -14 29 -16
254 -14 138 2 870 6 1625 10 l1372 8 0 22 0 22 -937 -1 c-516 0 -769 1 -563 4
l375 5 -345 5 c-190 3 -385 5 -435 6 -379 4 -1048 15 -1179 21 -129 5 -160 3
-167 -8 -6 -10 -9 -11 -9 -1 0 6 -4 12 -10 12 -5 0 -10 -4 -10 -10z"/>
<path d="M2558 1448 l42 -43 590 -3 590 -2 0 -25 c0 -14 5 -25 10 -25 6 0 10
24 10 53 0 30 -4 47 -8 39 -7 -10 -128 -12 -593 -10 -574 3 -585 3 -614 24
-58 40 -71 36 -27 -8z"/>
<path d="M9362 1267 c2 -103 0 -187 -4 -187 -4 0 -19 -11 -34 -25 -15 -14 -45
-30 -68 -35 -80 -20 -89 -29 -111 -110 -11 -41 -24 -81 -28 -87 -6 -10 20 -13
120 -14 73 0 119 -4 108 -8 -19 -8 -19 -8 3 -15 12 -4 22 -10 22 -14 0 -4
-135 -6 -301 -4 -218 2 -305 0 -315 -9 -11 -9 -14 -8 -14 5 0 13 12 16 68 17
37 1 126 5 197 8 l130 8 -192 1 c-252 3 -242 10 -203 -154 21 -89 24 -114 13
-99 -9 12 -13 14 -11 5 6 -20 46 -40 83 -40 68 0 512 62 552 77 12 5 14 3 8
-7 -5 -8 -4 -11 2 -7 6 4 11 51 12 106 2 86 0 101 -16 111 -16 10 -16 11 0 6
15 -5 17 2 17 48 0 52 0 53 -37 63 l-38 10 38 2 c43 1 51 21 8 21 -17 0 -32 4
-35 8 -2 4 10 6 27 4 l32 -3 2 63 1 63 -12 -60 c-10 -54 -11 -34 -14 185 -2
135 -5 247 -8 249 -3 3 -4 -79 -2 -182z"/>
<path d="M3350 1310 c0 -5 24 -10 54 -10 30 0 58 -4 61 -10 4 -6 -16 -10 -54
-10 -38 0 -61 -4 -64 -12 -3 -7 -6 1 -7 17 -1 29 -1 29 -16 10 -22 -29 -17
-381 6 -395 22 -14 144 -12 158 2 9 9 12 68 12 205 0 180 -1 193 -19 203 -25
13 -131 13 -131 0z"/>
<path d="M1349 1297 c-3 -4 -32 -7 -65 -8 -32 -1 -63 -4 -69 -8 -5 -3 -26 -7
-45 -8 -44 -3 -166 -29 -202 -44 -15 -6 -25 -16 -22 -21 4 -5 -11 -28 -32 -51
l-39 -41 46 39 c25 22 43 44 41 49 -3 5 2 7 11 3 10 -3 17 -2 17 2 0 31 316
66 515 58 128 -5 275 -30 275 -47 0 -5 6 -7 14 -4 7 3 20 -2 29 -10 8 -8 17
-12 21 -9 3 4 6 1 6 -6 0 -7 5 -9 10 -6 6 3 10 2 10 -4 0 -6 7 -8 15 -5 21 8
19 21 -5 29 -11 4 -18 11 -15 16 3 5 -2 6 -11 2 -13 -5 -15 -3 -9 7 5 8 4 11
-3 6 -6 -3 -28 0 -49 9 -75 29 -170 45 -303 51 -74 4 -137 4 -141 1z"/>
<path d="M1185 1235 c-140 -15 -218 -41 -264 -89 -24 -25 -40 -33 -60 -31 -30
3 -52 -11 -45 -29 3 -7 -14 -43 -37 -81 -73 -121 -114 -236 -134 -377 -8 -55
-16 -103 -19 -106 -8 -8 -8 1 9 125 14 112 46 215 90 290 27 45 31 58 15 48
-6 -4 -7 1 -3 12 4 11 2 15 -3 10 -5 -5 -9 -19 -9 -30 0 -12 -5 -21 -12 -20
-8 2 -10 -4 -6 -14 4 -11 3 -14 -6 -9 -8 5 -12 3 -10 -5 3 -27 -1 -40 -11 -34
-6 3 -7 -1 -4 -9 3 -9 1 -16 -5 -16 -6 0 -10 -3 -10 -7 3 -21 -2 -33 -12 -27
-8 4 -9 -1 -4 -17 5 -19 4 -21 -5 -9 -9 12 -10 10 -9 -10 3 -39 -2 -86 -8 -72
-3 9 -53 11 -206 10 l-202 -3 183 -2 c110 -2 182 -7 182 -13 0 -6 -71 -10
-185 -10 -148 0 -186 3 -192 14 -11 20 -103 25 -103 6 0 -5 19 -8 43 -7 l42 2
-2 -45 c-1 -27 1 -37 5 -25 7 19 13 20 152 15 90 -4 122 -7 85 -10 -58 -3 -58
-4 -15 -7 92 -8 60 -22 -59 -25 -108 -3 -122 -1 -127 15 -12 39 -19 12 -18
-75 1 -66 -1 -84 -7 -63 -5 16 -7 55 -4 85 3 40 2 46 -3 20 l-8 -35 -7 53
c-12 79 -14 82 -61 81 -29 -2 -33 -3 -13 -6 34 -5 35 -19 2 -25 -17 -4 -29 1
-39 16 -15 21 -15 21 -16 1 0 -17 -2 -18 -11 -5 -9 12 -10 12 -5 -3 3 -10 6
-32 6 -48 0 -18 5 -29 14 -29 9 0 16 -18 20 -51 4 -28 5 -53 3 -56 -3 -2 -8
19 -12 46 -7 54 -25 70 -25 24 0 -22 -2 -25 -10 -13 -7 11 -10 7 -11 -20 l-2
-35 -7 35 -8 35 1 -40 c1 -23 7 -40 14 -40 6 0 15 -4 20 -9 5 -5 3 -6 -4 -2
-19 11 -16 -9 4 -25 14 -12 16 -12 9 0 -6 9 -5 12 5 9 8 -3 13 -11 11 -17 -1
-7 2 -10 8 -6 5 3 11 16 11 28 1 17 2 18 6 5 3 -14 15 -18 54 -18 28 0 59 5
69 10 13 7 21 7 25 0 3 -5 11 -10 17 -10 6 0 5 7 -3 18 -11 14 -10 14 8 -2 13
-10 20 -22 18 -27 -3 -4 3 -8 12 -8 10 0 36 -5 58 -10 l40 -10 -51 3 c-32 2
-62 11 -81 24 -20 14 -34 18 -44 11 -7 -5 -36 -9 -64 -10 -27 -1 -41 -3 -30
-6 11 -3 29 -13 40 -23 36 -34 73 -40 218 -38 l142 2 -155 5 c-98 4 -163 11
-178 19 -34 19 -26 23 14 6 26 -11 72 -14 184 -13 l148 1 28 29 c35 37 53 37
89 -1 33 -35 35 -35 61 -14 18 14 18 15 -5 4 -20 -10 -27 -8 -56 20 -17 17
-41 32 -52 33 -14 1 -19 6 -15 16 4 10 7 11 10 3 2 -7 8 -12 14 -12 6 0 26
-14 45 -30 26 -24 38 -28 52 -20 10 5 22 6 26 2 4 -4 4 20 1 53 l-5 60 10 -50
c13 -66 37 -141 61 -187 10 -21 16 -38 13 -38 -7 0 -35 56 -56 114 -11 28 -17
38 -14 21 9 -46 73 -177 84 -171 5 4 13 1 17 -5 5 -8 3 -9 -6 -4 -8 5 -11 3
-8 -6 3 -8 10 -14 15 -14 6 0 15 -4 20 -9 5 -5 3 -6 -4 -2 -19 11 -16 -9 4
-25 15 -12 16 -12 8 1 -5 9 0 8 13 -4 25 -21 31 -36 7 -16 -9 7 -15 8 -15 2 0
-12 148 -152 162 -152 5 0 -17 22 -49 48 -32 27 -65 57 -73 68 -8 10 5 1 30
-21 25 -22 61 -52 80 -67 l35 -26 372 0 372 1 48 39 c72 58 169 171 123 143
-16 -10 -11 1 7 16 14 12 16 12 9 -1 -4 -8 2 -4 13 9 23 26 28 46 9 35 -8 -4
-10 -3 -5 2 5 5 14 9 20 9 15 0 73 146 81 200 4 30 3 34 -3 15 -6 -16 -7 -1
-4 45 6 73 13 100 13 48 0 -30 1 -30 62 -36 55 -5 65 -9 97 -43 l36 -39 -36
34 c-23 21 -44 31 -55 28 -17 -4 -17 -5 1 -6 11 0 37 -20 58 -43 21 -24 35
-36 31 -28 -5 10 0 9 14 -4 25 -21 31 -36 7 -16 -27 22 -16 -6 12 -31 20 -18
24 -19 13 -4 -15 20 -14 20 8 1 23 -20 30 -32 12 -21 -24 15 -7 -14 27 -46 20
-18 33 -28 29 -21 -5 7 -1 12 11 12 10 0 14 3 8 8 -15 10 -36 62 -30 72 3 5 1
10 -3 12 -13 5 -131 236 -124 242 3 3 0 6 -6 6 -6 0 -9 7 -5 17 4 10 2 14 -4
10 -12 -8 -56 67 -45 78 4 5 1 5 -5 1 -12 -6 -18 5 -14 27 0 4 -3 7 -9 7 -5 0
-14 10 -21 21 -8 15 -8 19 0 15 19 -12 -7 45 -52 111 -28 40 -48 61 -59 59
-29 -4 -29 -11 -8 -60 11 -26 20 -53 20 -59 0 -7 -13 17 -29 53 -19 44 -25 69
-18 78 6 7 6 12 0 12 -5 0 -15 12 -21 26 -7 14 -16 23 -21 19 -5 -3 -13 0 -17
6 -4 8 -3 9 4 5 18 -11 14 10 -5 25 -15 12 -16 12 -8 -1 5 -9 0 -8 -13 4 -25
21 -31 36 -7 16 22 -18 19 4 -3 23 -20 19 -37 23 -27 7 5 -9 -92 47 -105 60
-3 3 -16 6 -30 8 -14 1 -27 7 -28 12 -2 6 -7 8 -11 6 -4 -3 -43 1 -87 9 -96
17 -305 17 -469 0z m440 -31 l30 -8 -39 -5 c-56 -8 -54 -23 5 -44 27 -10 59
-27 69 -37 10 -10 21 -16 23 -13 3 2 10 -5 17 -16 6 -12 15 -19 20 -16 10 6
98 -91 123 -137 l18 -33 -23 30 c-37 47 -111 130 -117 130 -3 0 -27 15 -54 33
-62 43 -96 57 -189 76 -76 16 -119 14 -233 -9 -120 -25 -273 -148 -340 -276
-20 -38 -38 -69 -41 -69 -3 0 12 33 33 73 52 100 146 193 245 242 43 21 75 42
72 46 -9 14 -108 10 -154 -6 -48 -17 -67 -14 -23 3 74 30 179 45 283 40 58 -3
130 -2 160 2 57 7 66 7 115 -6z m-112 -59 c32 -8 75 -24 95 -36 37 -20 31 -19
-43 9 -22 8 -74 17 -115 19 -302 20 -545 -222 -551 -547 -1 -68 -2 -71 -9 -30
-18 110 20 256 98 373 114 174 333 262 525 212z m68 -163 c37 -18 85 -53 114
-83 28 -28 44 -48 36 -44 -9 5 -12 3 -9 -6 3 -8 10 -14 15 -14 6 0 15 -4 20
-9 5 -5 3 -6 -4 -2 -17 9 -16 1 2 -33 14 -28 14 -29 -15 -35 -17 -3 -29 -11
-28 -18 2 -6 -10 -14 -26 -17 -16 -3 -31 -12 -34 -18 -5 -17 5 -16 62 3 36 12
46 20 42 33 -4 11 -1 10 9 -4 9 -11 21 -20 28 -20 7 0 13 -11 14 -25 l2 -25
-8 25 -9 25 -1 -27 c-1 -19 4 -28 14 -28 12 0 15 -14 15 -65 0 -53 -3 -66 -19
-75 -11 -5 -21 -6 -23 -1 -2 4 -21 11 -43 14 -38 6 -39 5 -15 -8 33 -19 13
-19 -24 0 -29 15 -46 13 -46 -7 0 -6 3 -9 6 -5 3 3 30 -3 60 -13 33 -12 54
-15 54 -8 0 7 5 6 15 -2 12 -10 15 -9 15 5 0 10 3 16 6 12 3 -3 3 -21 -1 -39
-7 -29 -9 -30 -16 -13 -6 16 -8 17 -8 3 -1 -17 -19 -15 -75 8 -15 6 -17 4 -11
-7 7 -10 1 -9 -18 4 -15 10 -27 13 -27 7 0 -6 -5 -8 -11 -4 -6 3 -4 -5 5 -18
9 -14 14 -28 11 -31 -3 -4 -2 -5 1 -2 4 2 15 0 25 -5 11 -6 20 -6 24 -1 3 5
-3 12 -14 16 -11 3 -25 13 -33 22 -7 9 6 4 29 -10 50 -32 63 -33 63 -9 0 10 3
13 8 6 4 -6 14 -14 22 -17 13 -5 13 -6 -1 -6 -9 -1 -21 -13 -27 -27 -7 -14 -8
-23 -2 -19 5 3 10 2 10 -4 0 -23 -21 -20 -30 4 -5 14 -14 24 -19 20 -5 -3 -13
0 -16 6 -4 5 -13 8 -20 5 -7 -2 -22 2 -34 10 -13 10 -21 11 -21 4 0 -6 -4 -9
-9 -6 -13 8 -4 -43 11 -62 11 -15 11 -15 -3 -5 -9 7 -20 9 -24 5 -5 -4 -5 0 0
8 5 8 5 12 0 8 -4 -4 -14 -3 -22 4 -7 6 -16 8 -20 4 -3 -3 -1 -6 7 -6 9 0 10
-4 2 -13 -8 -9 -8 -17 0 -27 8 -12 9 -12 4 3 -3 9 -1 17 4 17 6 0 10 -7 10
-16 0 -13 3 -14 14 -5 10 8 16 9 21 1 4 -6 2 -9 -3 -8 -10 3 -12 -1 -12 -23 0
-7 5 -8 13 -3 6 5 24 9 40 8 19 -1 27 4 27 16 0 18 -33 54 -42 45 -3 -3 -11 1
-18 10 -9 11 -9 15 -1 15 7 0 9 4 6 10 -15 24 14 7 46 -27 18 -20 27 -32 19
-28 -8 5 -13 6 -10 2 8 -9 25 -8 25 3 0 6 5 9 10 8 6 -2 9 -7 7 -11 -1 -5 2
-6 8 -2 15 9 12 -11 -3 -24 -8 -6 -18 -7 -22 -3 -5 4 -5 2 -2 -4 9 -15 -29
-49 -38 -35 -3 6 -14 11 -23 10 -12 0 -10 -3 7 -10 20 -8 22 -12 10 -27 -7 -9
13 8 45 38 90 86 134 190 137 320 1 56 2 60 8 28 10 -50 -3 -152 -29 -221 -73
-194 -279 -315 -475 -278 -69 12 -141 43 -185 79 -15 12 5 6 49 -16 70 -35 81
-37 175 -39 l101 -1 -86 7 c-102 9 -192 47 -255 107 -22 21 -32 33 -22 25 10
-8 18 -10 18 -4 0 13 -35 45 -42 37 -3 -3 -9 0 -14 7 -5 8 -3 10 6 4 8 -5 11
-3 8 6 -3 8 -10 13 -16 12 -6 -2 -16 7 -22 20 -11 22 -11 22 6 2 l17 -20 -8
20 c-18 49 -19 59 -2 52 8 -3 32 3 53 14 21 10 44 19 51 19 7 0 13 5 13 11 0
5 -4 7 -10 4 -5 -3 -10 -1 -10 4 0 16 -14 13 -39 -8 -17 -15 -31 -18 -58 -14
-33 6 -36 4 -31 -15 4 -12 2 -20 -2 -17 -13 8 -32 107 -27 140 3 24 4 21 6
-15 2 -25 7 -56 11 -70 6 -19 8 -12 9 31 1 62 8 69 79 69 23 0 32 5 32 16 0
14 -8 16 -49 11 -45 -5 -51 -4 -57 16 -8 25 -12 129 -4 119 3 -4 15 -8 28 -10
29 -4 112 -42 92 -41 -8 0 -26 6 -40 14 -30 17 -40 18 -40 5 0 -5 19 -15 41
-22 36 -10 43 -10 54 5 6 9 14 15 17 12 2 -3 4 5 3 17 -1 12 -7 23 -14 24 -8
2 -8 1 0 -3 8 -4 8 -8 -2 -13 -8 -5 -22 -1 -37 11 -27 21 -47 25 -36 7 5 -7 3
-8 -6 -3 -10 6 -7 12 11 26 13 10 19 19 13 19 -6 0 -19 -9 -29 -20 -10 -11
-25 -20 -34 -20 -9 0 -12 3 -6 8 6 4 11 12 12 17 1 6 5 19 9 29 6 15 4 17 -7
11 -8 -5 -11 -5 -6 1 5 5 14 9 19 9 6 0 13 6 16 14 3 9 0 11 -9 6 -8 -5 -11
-5 -7 -1 3 4 8 6 11 4 3 -2 14 6 26 16 12 11 22 14 22 8 3 -27 4 -31 12 -39 5
-4 8 -3 7 2 -6 26 3 24 40 -9 38 -34 60 -39 60 -15 0 6 -4 8 -9 4 -6 -3 -15 4
-21 15 -8 16 -8 20 2 18 7 -2 12 4 10 12 -1 9 5 7 17 -7 26 -30 34 -29 27 5
-5 27 -5 27 9 -3 10 -21 14 -25 15 -11 0 13 5 17 19 13 33 -8 40 5 30 57 -5
27 -7 51 -5 54 3 2 8 -13 11 -34 16 -94 34 -102 37 -16 l1 57 7 -60 7 -60 1
57 c1 34 7 58 15 61 6 3 -3 6 -20 6 -20 1 -33 -4 -34 -11 0 -10 -2 -10 -6 0
-2 6 -12 12 -20 12 -13 0 -14 -10 -10 -57 l5 -58 -10 53 c-10 50 -28 72 -28
35 0 -15 -2 -16 -10 -3 -8 13 -11 13 -22 1 -7 -8 -8 -11 -2 -8 12 7 29 -21 19
-31 -3 -3 -5 0 -5 6 0 7 -8 12 -18 12 -17 0 -30 39 -14 41 4 1 23 4 42 7 114
19 311 -1 293 -31 -3 -6 -1 -7 6 -3 6 4 26 -2 44 -14 l32 -22 -25 23 c-14 12
-50 34 -80 48 -47 22 -68 26 -150 26 -102 0 -197 -25 -183 -48 4 -6 8 -20 8
-29 1 -15 -1 -15 -14 -5 -12 10 -14 9 -8 -8 l7 -20 -16 20 -17 20 8 -20 c3
-11 8 -28 10 -38 4 -15 2 -17 -10 -7 -12 10 -15 10 -15 -1 0 -12 -2 -12 -9 0
-5 7 -14 10 -20 7 -6 -4 -14 0 -17 9 -5 12 -9 13 -20 4 -26 -21 -14 -3 13 22
15 13 22 17 15 8 -10 -14 -10 -18 3 -22 8 -4 14 -3 14 1 -1 4 0 10 1 15 1 4 3
12 4 19 0 7 19 23 41 35 71 41 124 53 216 50 73 -3 96 -8 150 -35z"/>
<path d="M1454 971 c4 -6 1 -11 -8 -11 -12 0 -16 -11 -16 -50 0 -74 23 -67 40
12 9 42 9 42 4 -10 -4 -41 -1 -54 11 -58 8 -3 12 -11 8 -18 -3 -6 -2 -7 3 -3
5 5 9 12 10 15 2 13 45 102 50 102 2 0 -3 -17 -12 -37 -20 -50 -21 -58 -7 -56
7 2 10 -4 7 -12 -8 -20 5 -19 28 2 15 14 19 14 16 3 -2 -9 3 -14 12 -12 8 2
11 0 7 -5 -5 -4 -14 -8 -20 -8 -7 0 -13 -9 -15 -20 -2 -15 -1 -17 6 -6 8 11
10 11 15 0 3 -10 14 -5 39 19 19 18 38 29 42 25 4 -4 9 3 13 15 5 19 8 20 22
10 9 -7 5 0 -8 14 -19 22 -51 29 -51 11 0 -3 7 -3 15 0 19 8 26 -5 14 -23 -6
-10 -9 -11 -9 -2 0 6 -7 12 -15 12 -8 0 -14 -5 -12 -11 1 -6 -9 -13 -23 -15
-24 -4 -24 -4 -5 10 19 15 19 15 -4 11 -13 -2 -20 -1 -17 3 4 4 13 7 19 7 22
0 13 38 -10 41 -17 3 -21 0 -16 -13 4 -10 2 -14 -5 -9 -6 3 -13 -3 -17 -14 -3
-11 -11 -20 -16 -20 -6 0 -6 7 -1 18 5 9 12 29 15 43 6 24 3 27 -26 33 -17 3
-45 9 -61 12 -20 5 -27 4 -22 -5z"/>
<path d="M1410 790 c12 -8 9 -10 -13 -10 -15 0 -41 -7 -58 -15 -16 -9 -34 -13
-40 -10 -5 4 -9 3 -8 -2 3 -19 -2 -25 -14 -14 -10 8 -14 7 -14 -4 0 -8 4 -12
9 -9 12 8 11 4 -18 -51 -20 -38 -25 -43 -20 -20 5 26 5 28 -6 10 -6 -10 -11
-46 -11 -80 0 -49 -2 -55 -9 -30 -4 17 -6 44 -3 60 l4 30 -10 -30 c-8 -23 -6
-42 8 -85 10 -30 23 -55 30 -55 6 0 15 -4 20 -9 5 -5 3 -6 -4 -2 -23 13 -14
-10 15 -36 49 -47 94 -68 142 -67 54 1 85 11 85 29 0 7 6 15 14 18 10 3 11 0
5 -9 -4 -8 8 -2 27 12 48 37 89 119 89 178 0 47 -28 122 -51 136 -8 6 -10 4
-4 -6 4 -8 -10 3 -31 23 -42 40 -80 58 -122 58 -21 0 -24 -2 -12 -10z m89 -46
c14 -9 35 -27 45 -41 11 -15 14 -23 8 -19 -8 5 -12 -3 -12 -23 0 -17 -4 -31
-10 -31 -5 0 -10 6 -10 14 0 20 -27 27 -40 11 -9 -11 -17 -12 -30 -5 -32 17
-44 11 -24 -11 14 -16 15 -21 4 -17 -21 7 -50 -9 -50 -28 0 -8 -5 -12 -11 -8
-6 3 -8 15 -6 26 6 23 -12 58 -30 58 -6 0 -15 5 -19 12 -5 7 -3 8 7 3 12 -8
12 -6 0 8 -9 11 -10 17 -2 17 6 0 11 5 11 11 0 6 -6 9 -12 6 -7 -2 -12 -12
-12 -21 1 -9 -2 -16 -7 -16 -5 0 -6 -6 -4 -12 3 -7 1 -35 -4 -63 l-9 -50 -1
55 c-1 40 -4 51 -11 40 -5 -8 -10 -28 -11 -45 -2 -29 -2 -29 -6 -3 -4 28 25
96 51 117 49 41 140 48 195 15z m79 -181 c-4 -67 -8 -77 -38 -108 -34 -35 -90
-63 -90 -44 0 6 -7 6 -19 -1 -24 -12 -73 -14 -53 -1 10 6 5 10 -16 14 -16 3
-43 18 -58 32 l-29 27 32 -21 c43 -29 51 -26 15 4 -17 14 -35 25 -41 25 -6 0
-11 5 -11 11 0 5 4 8 10 4 5 -3 17 -1 27 4 10 5 26 12 36 15 11 4 15 11 11 18
-4 7 1 6 12 -3 30 -25 49 -28 78 -14 15 8 24 10 21 6 -6 -10 19 -33 27 -25 3
3 9 0 14 -7 4 -7 3 -10 -2 -6 -15 9 -34 -27 -23 -44 8 -11 9 -10 7 6 -2 13 4
21 17 23 11 2 30 14 41 26 18 19 22 34 20 83 0 34 3 59 8 56 4 -3 6 -39 4 -80z"/>
<path d="M0 939 c0 -6 9 -8 20 -4 11 3 20 2 20 -4 0 -5 -9 -13 -21 -16 -19 -6
-20 -13 -17 -93 3 -83 4 -86 29 -93 15 -3 32 -3 38 1 7 4 -2 7 -19 8 -45 1
-51 12 -7 12 36 0 51 20 27 35 -5 3 -10 11 -10 18 0 6 8 0 17 -13 10 -14 17
-28 16 -31 -1 -4 117 -7 262 -8 l265 -2 1 43 c3 75 -3 133 -13 146 -8 9 -68
11 -247 10 l-236 -2 230 -6 c127 -3 231 -7 233 -8 2 -1 1 -6 -2 -10 -3 -5 -90
-7 -193 -5 -237 5 -272 -1 -295 -47 l-17 -35 -1 33 c0 24 -3 31 -12 25 -7 -4
-5 5 4 20 10 14 18 29 18 32 0 3 -20 5 -45 5 -25 0 -45 -5 -45 -11z"/>
<path d="M6760 719 c-19 -5 -40 -7 -47 -4 -17 6 -202 -13 -255 -27 -27 -6 -48
-15 -48 -20 0 -12 15 -10 78 9 50 15 110 17 492 18 443 0 475 -2 573 -40 9 -4
17 -3 17 3 0 20 -113 54 -195 58 -186 9 -583 11 -615 3z"/>
<path d="M6284 535 c-7 -16 11 -103 31 -150 30 -73 35 -86 35 -93 -1 -4 -9 9
-20 28 -31 56 -23 25 10 -41 17 -33 35 -57 40 -54 5 3 12 0 16 -6 5 -8 3 -9
-6 -4 -8 5 -11 3 -8 -6 3 -8 10 -14 15 -14 6 0 15 -4 20 -9 5 -5 3 -6 -4 -2
-22 12 -14 -10 9 -30 22 -19 23 -19 8 1 -11 15 -7 14 13 -4 28 -25 38 -43 12
-21 -8 7 -15 8 -15 3 0 -9 53 -62 107 -105 l32 -26 373 0 373 0 35 26 c19 15
55 45 80 67 25 22 38 31 30 21 -8 -11 -41 -41 -73 -68 -32 -26 -54 -48 -49
-48 12 0 162 140 162 151 0 6 -6 7 -12 3 -9 -5 -9 -2 1 9 16 20 26 23 15 5 -5
-9 -2 -9 9 1 20 16 23 36 5 25 -8 -4 -10 -3 -5 2 5 5 14 9 19 9 6 0 13 6 16
14 3 9 0 11 -8 6 -9 -5 -11 -4 -6 4 4 6 12 9 17 5 11 -6 76 128 85 176 6 25
11 30 38 31 l31 1 -30 8 -30 8 30 2 c17 1 34 2 38 1 5 -1 7 4 5 11 -3 7 -20
13 -38 13 -32 0 -33 -2 -49 -60 -10 -33 -23 -69 -30 -80 l-13 -20 8 20 c4 11
15 49 25 84 22 76 19 81 -57 81 l-51 0 -11 -42 -11 -43 5 41 c5 40 4 41 -27
48 -43 8 -119 8 -118 -1 1 -5 0 -17 -1 -28 -2 -15 -4 -13 -11 10 -7 26 -8 24
-4 -14 5 -60 -26 -132 -55 -126 -11 2 -18 0 -15 -6 4 -5 11 -6 17 -3 6 4 8 1
6 -7 -3 -8 -11 -13 -17 -11 -7 1 -10 -2 -7 -7 4 -5 -8 -27 -26 -48 -29 -35
-28 -35 16 7 47 45 116 165 116 201 0 16 8 19 45 19 25 0 45 -4 45 -10 0 -5
-17 -10 -38 -10 -37 0 -39 -2 -52 -42 -63 -212 -261 -343 -469 -311 -69 11
-158 46 -196 77 -11 9 4 5 34 -9 75 -37 180 -57 244 -48 51 8 50 8 -39 14
-104 6 -193 42 -255 100 -19 19 -25 25 -12 15 19 -16 25 -17 36 -6 6 7 7 10 1
7 -6 -4 -21 5 -34 18 -13 13 -26 22 -30 20 -4 -3 -14 3 -21 12 -12 14 -12 16
0 8 11 -6 13 -4 8 8 -4 12 -1 15 17 11 15 -2 31 5 50 25 20 21 35 28 55 26 14
-2 20 -2 13 1 -6 3 -9 11 -6 16 4 7 2 8 -4 4 -7 -4 -12 -2 -12 3 0 19 -18 12
-44 -15 -17 -19 -31 -25 -45 -21 -13 3 -24 -1 -30 -11 -7 -13 -10 -12 -16 8
-5 15 -10 19 -15 10 -5 -9 -8 -8 -12 2 -4 9 3 15 20 16 14 1 45 13 68 27 30
18 45 22 50 14 4 -7 3 -9 -3 -6 -6 4 -19 0 -29 -8 -15 -11 -16 -14 -4 -15 23
0 43 16 46 38 4 23 -16 25 -77 6 -47 -15 -82 -14 -96 1 -5 4 -2 5 5 1 15 -9
17 50 2 59 -7 4 -9 -3 -5 -22 l5 -28 -11 28 c-11 27 -13 28 -81 26 l-70 -2 5
-51 c5 -49 5 -49 -5 -13 -11 39 -22 47 -32 22 -7 -18 -49 -21 -44 -2 2 6 19
19 36 28 39 20 25 29 -44 29 -30 0 -46 -5 -50 -15z"/>
<path d="M6780 519 c0 -5 -5 -7 -11 -3 -6 3 -3 -8 6 -25 9 -18 20 -29 24 -27
4 3 19 -6 32 -20 58 -62 143 -80 212 -45 20 10 34 14 31 9 -11 -17 -71 -38
-108 -38 -49 0 -79 13 -127 57 -23 21 -40 31 -37 23 2 -8 26 -30 52 -49 57
-41 122 -51 177 -28 41 17 109 74 109 91 0 6 -12 -2 -26 -19 l-26 -30 22 33
c12 18 26 30 31 27 9 -6 33 44 25 52 -11 11 -46 -10 -46 -27 0 -16 -61 -79
-78 -81 -4 0 -25 -2 -47 -4 -49 -5 -102 8 -135 35 -20 16 -21 19 -5 13 18 -6
18 -5 6 10 -7 9 -17 14 -22 12 -4 -3 -13 4 -19 15 -13 24 -5 26 17 5 12 -12
18 -13 29 -4 8 6 14 16 14 22 0 6 -7 2 -15 -9 -10 -13 -13 -14 -10 -3 5 12 -1
16 -24 17 -30 1 -47 -20 -34 -40 3 -7 1 -8 -6 -4 -6 4 -9 16 -6 27 4 10 4 19
1 19 -3 0 -6 -5 -6 -11z"/>
<path d="M8415 475 c-5 -2 -127 -16 -270 -31 -279 -29 -307 -32 -315 -34 -3 0
8 -8 23 -16 41 -22 152 -44 225 -44 112 0 291 47 323 86 6 8 16 14 22 14 12 0
-28 -32 -68 -53 -16 -9 -25 -16 -19 -17 19 0 109 66 109 80 0 14 -14 21 -30
15z"/>
<path d="M7150 423 c0 -6 5 -15 10 -18 8 -5 7 -11 -1 -21 -6 -7 -15 -11 -20
-8 -5 3 -9 0 -9 -6 0 -6 -5 -8 -12 -4 -7 4 -8 3 -4 -5 4 -6 11 -9 16 -6 5 3
18 -9 30 -27 l22 -33 -24 28 c-25 28 -48 27 -26 -2 9 -11 6 -10 -9 2 -28 24
-38 6 -18 -33 8 -16 13 -30 10 -30 -2 0 -13 16 -23 36 -17 34 -20 35 -35 19
-9 -9 -17 -26 -18 -38 0 -21 -1 -21 -10 -2 -7 15 -8 8 -5 -25 4 -38 3 -40 -4
-15 -5 17 -12 44 -16 60 -6 27 -7 28 -14 10 -5 -11 -9 -39 -9 -62 -1 -41 0
-43 29 -43 26 0 30 4 31 28 2 23 2 24 6 4 4 -18 10 -22 30 -19 15 2 29 10 32
18 3 8 19 15 36 17 16 2 33 8 36 14 4 6 15 8 25 4 10 -4 15 -4 11 0 -4 4 0 15
9 25 15 17 11 45 -5 35 -4 -3 -20 8 -35 23 -18 19 -24 31 -17 36 6 3 8 12 5
18 -4 7 9 -3 27 -20 19 -18 41 -33 49 -34 10 0 8 -4 -5 -10 l-20 -9 20 3 c11
1 20 9 20 17 1 8 7 14 14 12 7 -1 11 3 8 10 -2 7 -10 12 -16 10 -7 -1 -26 7
-42 18 -16 12 -29 18 -29 14 0 -3 -7 -1 -15 6 -12 10 -15 10 -15 -1 0 -11 -2
-11 -10 1 -6 9 -10 10 -10 3z"/>
<path d="M6714 369 c-16 -17 -35 -27 -44 -24 -13 4 -13 4 0 -8 8 -7 20 -21 26
-32 7 -12 20 -19 33 -17 16 2 21 -2 21 -18 0 -17 5 -21 28 -19 15 2 33 0 40
-4 8 -6 12 -2 12 12 0 10 3 28 6 38 3 10 -2 7 -10 -7 -23 -37 -18 -11 5 30 13
24 18 27 13 11 -5 -19 -3 -23 10 -18 12 5 16 0 16 -18 0 -13 -4 -26 -9 -29 -5
-4 -7 4 -5 16 2 13 -2 7 -10 -12 -7 -19 -19 -34 -25 -32 -6 1 -11 -2 -11 -8 0
-15 57 -12 63 3 3 6 6 3 6 -8 1 -14 4 -16 12 -8 15 15 2 113 -16 113 -7 0 -15
7 -19 15 -8 22 -33 7 -45 -27 -6 -16 -15 -27 -20 -24 -5 4 -15 -2 -21 -11 -10
-16 -11 -16 -6 -1 3 10 0 20 -6 24 -7 5 -8 2 -3 -6 5 -9 4 -11 -4 -6 -6 4 -9
12 -5 17 3 5 9 7 13 4 15 -9 45 23 48 51 2 20 1 25 -6 15 -6 -9 -10 -10 -12
-2 -9 25 -47 19 -75 -10z"/>
<path d="M3559 286 c-2 -2 -232 -6 -511 -8 -280 -1 -508 -6 -508 -9 0 -12 105
-18 410 -24 340 -6 617 -18 1010 -44 280 -18 289 -18 655 18 282 28 585 51
667 51 37 0 70 5 73 10 6 10 -1786 16 -1796 6z m1281 -16 c-198 -18 -583 -22
-1204 -14 l-661 9 855 5 c470 3 909 6 975 6 119 1 119 1 35 -6z"/>
</g>
</svg>
